# xmcd CD database file
#
# Track frame offsets:
#	150
#	24497
#	42372
#	69370
#	83111
#	106529
#	125611
#	140481
#	162461
#	181810
#	203412
#	224319
#	234738
#	256720
#
# Disc length: 3636 seconds
#
# Revision: 1
# Processed by: cddbd v1.5.2PL0 Copyright (c) Steve Scherf et al.
# Submitted via: CDex 1.72
#
DISCID=b60e320e
DTITLE=McInnes, Catherine [CDN-03-Alone Together-jazz) - Alone Together
DYEAR=2003
DGENRE=Jazz
TTITLE0=Nature Boy
TTITLE1=I've Never Been In Love Before
TTITLE2=Blame it On My Youth
TTITLE3=The Gentle Rain
TTITLE4=The Nearness of You
TTITLE5=Alone Together
TTITLE6=My Buddy
TTITLE7=It Never Entered My Mind
TTITLE8=Detour Ahead
TTITLE9=You Don't Know What Love Is
TTITLE10=For Free
TTITLE11=Close Your Eyes
TTITLE12=Smile
TTITLE13=We'll Be Together Again
EXTD=YEAR: 2003
EXTT0=
EXTT1=
EXTT2=
EXTT3=
EXTT4=
EXTT5=
EXTT6=
EXTT7=
EXTT8=
EXTT9=
EXTT10=
EXTT11=
EXTT12=
EXTT13=
PLAYORDER=
